<svg xmlns="http://www.w3.org/2000/svg" width="1200" height="900" viewBox="0 0 1200 900" role="img" aria-labelledby="title desc">
  <title id="title">Default wedding botanical image</title>
  <desc id="desc">A warm botanical wedding illustration in ivory and muted rose.</desc>
  <defs>
    <linearGradient id="bg" x1="0" y1="0" x2="1" y2="1">
      <stop stop-color="#f5e5df"/><stop offset=".48" stop-color="#fffaf5"/><stop offset="1" stop-color="#e6c9c2"/>
    </linearGradient>
    <filter id="blur"><feGaussianBlur stdDeviation="38"/></filter>
  </defs>
  <rect width="1200" height="900" fill="url(#bg)"/>
  <circle cx="357" cy="354" r="250" fill="#fff" opacity=".58" filter="url(#blur)"/>
  <circle cx="860" cy="560" r="220" fill="#cf9387" opacity=".18" filter="url(#blur)"/>
  <g fill="none" stroke="#a77469" stroke-linecap="round" stroke-linejoin="round">
    <path d="M160 834c78-155 181-304 335-441" stroke-width="5"/>
    <path d="M1040 834C962 679 859 530 705 393" stroke-width="5"/>
    <path d="M245 674c-72-17-116-61-132-131 72 17 116 61 132 131zM312 582c-2-75 30-128 97-161 1 74-31 128-97 161zM378 511c-61-34-91-86-91-156 61 34 91 86 91 156z" fill="#c99b91" stroke-width="3"/>
    <path d="M955 674c72-17 116-61 132-131-72 17-116 61-132 131zM888 582c2-75-30-128-97-161-1 74 31 128 97 161zM822 511c61-34 91-86 91-156-61 34-91 86-91 156z" fill="#c99b91" stroke-width="3"/>
  </g>
  <g transform="translate(600 390)" fill="none" stroke="#82645d">
    <circle cx="-47" cy="0" r="106" stroke-width="10"/>
    <circle cx="47" cy="0" r="106" stroke-width="10"/>
    <path d="M-3-111l49-46 50 46-50 52z" stroke-width="6"/>
  </g>
  <text x="600" y="675" text-anchor="middle" fill="#745d57" font-family="Georgia, serif" font-size="42" letter-spacing="10">TOGETHER</text>
  <text x="600" y="725" text-anchor="middle" fill="#a77469" font-family="Arial, sans-serif" font-size="14" letter-spacing="6">THE BEST IS YET TO COME</text>
</svg>
